<?xml version="1.0" standalone="no"?>
<!DOCTYPE svg PUBLIC "-//W3C//DTD SVG 20010904//EN"
 "http://www.w3.org/TR/2001/REC-SVG-20010904/DTD/svg10.dtd">
<svg version="1.0" xmlns="http://www.w3.org/2000/svg"
 width="214.000000pt" height="214.000000pt" viewBox="0 0 214.000000 214.000000"
 preserveAspectRatio="xMidYMid meet">
<metadata>
Created by potrace 1.14, written by Peter Selinger 2001-2017
</metadata>
<g transform="translate(0.000000,214.000000) scale(0.100000,-0.100000)"
fill="#000000" stroke="none">
<path d="M805 1984 c-234 -46 -419 -249 -439 -480 -7 -88 44 -163 142 -211 50
-23 69 -27 152 -27 107 0 147 13 203 67 91 85 44 225 -100 298 -61 31 -66 32
-158 27 -52 -3 -95 -3 -95 -1 0 17 55 105 75 121 52 41 186 53 307 27 88 -18
221 -88 278 -145 66 -66 94 -129 98 -221 7 -135 -42 -265 -171 -459 -106 -159
-144 -205 -284 -346 -228 -229 -470 -381 -672 -425 -52 -11 -78 -30 -66 -49 9
-14 116 -5 195 17 223 60 459 193 733 412 231 185 380 356 467 536 122 255
112 493 -30 669 -71 89 -218 173 -341 196 -71 14 -210 11 -294 -6z"/>
<path d="M1785 1796 c-5 -2 -22 -7 -37 -10 -35 -8 -94 -59 -115 -100 -25 -47
-23 -160 5 -213 33 -64 78 -93 163 -104 54 -8 79 -7 103 2 166 67 187 285 37
387 -44 30 -125 50 -156 38z"/>
<path d="M1703 1220 c-81 -41 -101 -135 -53 -246 59 -137 269 -137 331 0 38
84 15 178 -57 233 -51 38 -158 45 -221 13z"/>
</g>
</svg>
